<svg id="Layer_1" data-name="Layer 1" xmlns="http://www.w3.org/2000/svg" viewBox="0 0 1080 1080" width="600" height="600"><defs><style>.cls-1,.cls-2{fill:#fff;}.cls-1{stroke:#000;}.cls-1,.cls-2,.cls-3{stroke-miterlimit:10;stroke-width:2px;}.cls-2,.cls-3{stroke:#333;}.cls-3{fill:none;}</style></defs><title>case</title><path class="cls-1" d="M805.11,292.3l220,82.25c50,7.21,70.07,68.65,33.92,104L910.6,712.62a61,61,0,0,0-17.47,54L895,985.39c8.61,49.81-43.63,87.86-88.4,64.39L567.32,970a61,61,0,0,0-56.75.07l-236.71,80.37c-44.71,23.57-97-14.35-88.56-64.17L179.75,765a61,61,0,0,0-17.61-54L20.05,479.81c-36.24-35.24-16.34-96.73,33.67-104.06L276,286.08a61,61,0,0,0,45.87-33.41L484.32,62.09c22.32-45.35,86.95-45.43,109.37-.14L759.16,259A61,61,0,0,0,805.11,292.3ZM712.58,311,576.76,149.3c-18.41-37.19-71.46-37.12-89.77.11L353.59,305.84a50,50,0,0,1-37.65,27.43L133.52,406.88c-41.05,6-57.38,56.49-27.63,85.41L222.52,682.11A50.06,50.06,0,0,1,237,726.4L241.53,908c-7,40.9,36,72,72.69,52.68l194.31-66a50,50,0,0,1,46.58-.06l196.41,65.49c36.75,19.26,79.63-12,72.56-52.86l-1.52-179.58a50,50,0,0,1,14.34-44.33L958.7,491.24c29.68-29,13.22-79.43-27.84-85.34L750.3,338.38A50.06,50.06,0,0,1,712.58,311Z"/><rect class="cls-2" x="963.31" y="544.42" width="71.48" height="190.75" rx="31.38" transform="translate(496.95 -435.07) rotate(32.33)"/><line class="cls-3" x1="997.85" y1="574.86" x2="1059" y2="613"/><line class="cls-3" x1="979.85" y1="603.3" x2="1040" y2="641"/><line class="cls-3" x1="963.84" y1="628.59" x2="1024" y2="666"/><line class="cls-3" x1="947.84" y1="653.87" x2="1009" y2="692"/><line class="cls-3" x1="934" y1="676" x2="994.9" y2="714.63"/></svg>